<svg id="Icons" height="512" viewBox="0 0 74 74" width="512" xmlns="http://www.w3.org/2000/svg"><path d="m41.54 46.96a1 1 0 0 1 -.707-.293l-10.95-10.95a1 1 0 0 1 0-1.414l21.193-21.203-4.833-4.833a1 1 0 0 1 .538-1.693l26.6-4.56a1 1 0 0 1 1.154 1.155l-4.57 26.6a1 1 0 0 1 -1.692.537l-4.833-4.832-3.533 3.533a1 1 0 0 1 -1.414-1.414l4.24-4.24a1 1 0 0 1 1.414 0l4.174 4.174 4-23.3-23.3 3.994 4.179 4.172a1 1 0 0 1 0 1.414l-21.2 21.203 9.536 9.536 4.923-4.923a1 1 0 0 1 1.414 1.414l-5.63 5.63a1 1 0 0 1 -.703.293z"/><path d="m52.15 36.35a1 1 0 0 1 -.707-1.707l2.07-2.07a1 1 0 0 1 1.414 1.414l-2.07 2.07a1 1 0 0 1 -.707.293z"/><path d="m38.3 64.8a1 1 0 0 1 -.707-1.707l14.735-14.733a1 1 0 0 1 1.414 1.414l-14.736 14.736a1 1 0 0 1 -.706.29z"/><path d="m31.1 72a1 1 0 0 1 -.707-1.707l2.516-2.516a1 1 0 0 1 1.414 1.414l-2.516 2.516a1 1 0 0 1 -.707.293z"/><path d="m7.65 37.04a1 1 0 0 1 -.707-1.707l14.736-14.733a1 1 0 0 1 1.414 1.414l-14.736 14.733a1 1 0 0 1 -.707.293z"/><path d="m.453 44.237a1 1 0 0 1 -.707-1.707l2.516-2.516a1 1 0 0 1 1.414 1.414l-2.516 2.516a.993.993 0 0 1 -.707.293z"/><path d="m21.818 33.824a1 1 0 0 1 -.707-1.707l11.089-11.085a1 1 0 0 1 1.414 1.414l-11.089 11.085a.993.993 0 0 1 -.707.293z"/><path d="m14.621 41.021a1 1 0 0 1 -.707-1.707l2.516-2.514a1 1 0 0 1 1.414 1.414l-2.516 2.516a1 1 0 0 1 -.707.291z"/></svg>