<svg width="200px" height="200px" viewBox="0 0 200 200" xmlns="http://www.w3.org/2000/svg"><title>Virtual Reality icons</title><path d="M50.39,192l-0.16-41.61A73.91,73.91,0,0,1,94,16.91c25.05,0,46.81,12.46,60.41,31.53" fill="none" stroke="#220728" stroke-miterlimit="10" stroke-width="8"/><path d="M21,105H47.79a25,25,0,0,0,38.41,0H107" fill="none" stroke="#220728" stroke-miterlimit="10" stroke-width="8"/><path d="M107,73H86.21a25,25,0,0,0-38.41,0H21" fill="none" stroke="#220728" stroke-miterlimit="10" stroke-width="8"/><path d="M158,127v29a10,10,0,0,1-10,10H121v26" fill="none" stroke="#220728" stroke-miterlimit="10" stroke-width="8"/><line x1="154" y1="125" x2="154" y2="50" fill="none" stroke="#f3d900" stroke-miterlimit="10" stroke-width="8"/><path d="M128,113H118a10,10,0,0,1-10-10V72a10,10,0,0,1,10-10h10l29-12h29v75H157Z" fill="none" stroke="#f3d900" stroke-miterlimit="10" stroke-width="8"/><line x1="128" y1="111" x2="128" y2="62" fill="none" stroke="#f3d900" stroke-miterlimit="10" stroke-width="8"/><circle cx="67" cy="89" r="10" fill="none" stroke="#220728" stroke-miterlimit="10" stroke-width="8"/><line x1="53" y1="68.12" x2="53" y2="28" fill="none" stroke="#220728" stroke-miterlimit="10" stroke-width="8"/><line x1="80" y1="18" x2="80" y2="67.12" fill="none" stroke="#220728" stroke-miterlimit="10" stroke-width="8"/></svg>